<mxfile host="app.diagrams.net" agent="Mozilla/5.0 (Windows NT 10.0; Win64; x64) AppleWebKit/537.36 (KHTML, like Gecko) Chrome/134.0.0.0 Safari/537.36" version="26.2.9">
  <diagram name="Strona-1" id="Kb87idiKRJ-02W1zOXVP">
    <mxGraphModel dx="707" dy="817" grid="1" gridSize="10" guides="1" tooltips="1" connect="1" arrows="1" fold="1" page="1" pageScale="1" pageWidth="827" pageHeight="1169" math="0" shadow="0">
      <root>
        <mxCell id="0" />
        <mxCell id="1" parent="0" />
        <mxCell id="HGjmFFyR2o30FeORBPOs-6" style="edgeStyle=orthogonalEdgeStyle;rounded=0;orthogonalLoop=1;jettySize=auto;html=1;entryX=0;entryY=0.5;entryDx=0;entryDy=0;" edge="1" parent="1" source="HGjmFFyR2o30FeORBPOs-1" target="HGjmFFyR2o30FeORBPOs-3">
          <mxGeometry relative="1" as="geometry" />
        </mxCell>
        <mxCell id="HGjmFFyR2o30FeORBPOs-1" value="Księgowy" style="html=1;whiteSpace=wrap;" vertex="1" parent="1">
          <mxGeometry x="40" y="320" width="110" height="50" as="geometry" />
        </mxCell>
        <mxCell id="HGjmFFyR2o30FeORBPOs-7" style="edgeStyle=orthogonalEdgeStyle;rounded=0;orthogonalLoop=1;jettySize=auto;html=1;entryX=0;entryY=0.5;entryDx=0;entryDy=0;startArrow=classic;startFill=1;" edge="1" parent="1" source="HGjmFFyR2o30FeORBPOs-3" target="HGjmFFyR2o30FeORBPOs-4">
          <mxGeometry relative="1" as="geometry" />
        </mxCell>
        <mxCell id="HGjmFFyR2o30FeORBPOs-3" value="Faktura" style="html=1;whiteSpace=wrap;" vertex="1" parent="1">
          <mxGeometry x="340" y="320" width="110" height="50" as="geometry" />
        </mxCell>
        <mxCell id="HGjmFFyR2o30FeORBPOs-4" value="Bank" style="html=1;whiteSpace=wrap;" vertex="1" parent="1">
          <mxGeometry x="690" y="320" width="110" height="50" as="geometry" />
        </mxCell>
        <mxCell id="HGjmFFyR2o30FeORBPOs-8" value="" style="triangle;whiteSpace=wrap;html=1;fillColor=light-dark(#FFFFFF,#FFFFFF);fillStyle=solid;rotation=0;" vertex="1" parent="1">
          <mxGeometry x="270" y="320" width="10.5" height="19" as="geometry" />
        </mxCell>
        <mxCell id="HGjmFFyR2o30FeORBPOs-9" value="Opłaca" style="text;html=1;align=center;verticalAlign=middle;resizable=0;points=[];autosize=1;strokeColor=none;fillColor=none;" vertex="1" parent="1">
          <mxGeometry x="210" y="314.5" width="60" height="30" as="geometry" />
        </mxCell>
        <mxCell id="HGjmFFyR2o30FeORBPOs-10" value="1" style="text;html=1;align=center;verticalAlign=middle;resizable=0;points=[];autosize=1;strokeColor=none;fillColor=none;" vertex="1" parent="1">
          <mxGeometry x="150" y="320" width="30" height="30" as="geometry" />
        </mxCell>
        <mxCell id="HGjmFFyR2o30FeORBPOs-11" value="1...*" style="text;html=1;align=center;verticalAlign=middle;resizable=0;points=[];autosize=1;strokeColor=none;fillColor=none;" vertex="1" parent="1">
          <mxGeometry x="300" y="314.5" width="40" height="30" as="geometry" />
        </mxCell>
        <mxCell id="HGjmFFyR2o30FeORBPOs-12" value="1" style="text;html=1;align=center;verticalAlign=middle;resizable=0;points=[];autosize=1;strokeColor=none;fillColor=none;" vertex="1" parent="1">
          <mxGeometry x="660" y="309" width="30" height="30" as="geometry" />
        </mxCell>
        <mxCell id="HGjmFFyR2o30FeORBPOs-13" value="1...*" style="text;html=1;align=center;verticalAlign=middle;resizable=0;points=[];autosize=1;strokeColor=none;fillColor=none;" vertex="1" parent="1">
          <mxGeometry x="450" y="314.5" width="40" height="30" as="geometry" />
        </mxCell>
        <mxCell id="HGjmFFyR2o30FeORBPOs-14" value="" style="triangle;whiteSpace=wrap;html=1;fillColor=light-dark(#FFFFFF,#FFFFFF);fillStyle=solid;rotation=0;" vertex="1" parent="1">
          <mxGeometry x="630" y="320" width="10.5" height="19" as="geometry" />
        </mxCell>
        <mxCell id="HGjmFFyR2o30FeORBPOs-15" value="Dostaje przelew" style="text;html=1;align=center;verticalAlign=middle;resizable=0;points=[];autosize=1;strokeColor=none;fillColor=none;" vertex="1" parent="1">
          <mxGeometry x="520" y="314.5" width="110" height="30" as="geometry" />
        </mxCell>
      </root>
    </mxGraphModel>
  </diagram>
</mxfile>
